<svg width="86" height="80" viewBox="0 0 86 80" fill="none" xmlns="http://www.w3.org/2000/svg">
<path d="M82.6328 9.45L63.6501 0.450001H63.4128H62.8433H62.2738H61.0874H60.6128H59.9959H59.7586L42.7216 8.5L25.6846 0.450001H25.4473L24.8778 0H24.3083H23.1219H22.6473H22.0304L3.04766 9C2.10084 9.38224 1.29511 10.0739 0.748534 10.9737C0.201963 11.8735 -0.0567125 12.9341 0.0104149 14V75C0.0117377 75.8366 0.21228 76.6595 0.593671 77.3932C0.975062 78.127 1.52511 78.7482 2.19343 79.2C2.95727 79.7198 3.84677 79.9975 4.7561 80C5.42759 79.9967 6.09078 79.8433 6.70183 79.55L23.7388 71.5L40.7759 79.55H41.0132C41.548 79.8135 42.1312 79.95 42.7216 79.95C43.312 79.95 43.8952 79.8135 44.43 79.55H44.6673L61.7043 71.5L78.7414 79.55C79.3524 79.8433 80.0156 79.9967 80.6871 80C81.5964 79.9975 82.4859 79.7198 83.2498 79.2C83.9181 78.7482 84.4681 78.127 84.8495 77.3932C85.2309 76.6595 85.4315 75.8366 85.4328 75V14C85.4309 13.0382 85.1657 12.0974 84.6691 11.2904C84.1725 10.4833 83.4655 9.84434 82.6328 9.45ZM28.4845 12.75L37.9759 17.2V67.2L28.4845 62.75V12.75ZM75.9414 67.25L66.45 62.8V12.8L75.9414 17.25V67.25Z" fill="#205072"/>
</svg>
