<svg width="60" height="90" viewBox="0 0 60 90" fill="none" xmlns="http://www.w3.org/2000/svg">
<path d="M30.0003 58.5C34.5468 58.5 38.9072 56.6036 42.1221 53.2279C45.337 49.8523 47.1431 45.2739 47.1431 40.5V18C47.1431 13.2261 45.337 8.64773 42.1221 5.27208C38.9072 1.89642 34.5468 0 30.0003 0C25.4537 0 21.0934 1.89642 17.8784 5.27208C14.6635 8.64773 12.8574 13.2261 12.8574 18V40.5C12.8574 45.2739 14.6635 49.8523 17.8784 53.2279C21.0934 56.6036 25.4537 58.5 30.0003 58.5Z" fill="#205072"/>
<path d="M60 40.5C60 39.3065 59.5485 38.1619 58.7447 37.318C57.941 36.4741 56.8509 36 55.7143 36C54.5776 36 53.4875 36.4741 52.6838 37.318C51.8801 38.1619 51.4286 39.3065 51.4286 40.5C51.4286 46.4674 49.1709 52.1903 45.1523 56.4099C41.1337 60.6295 35.6832 63 30 63C24.3168 63 18.8663 60.6295 14.8477 56.4099C10.8291 52.1903 8.57143 46.4674 8.57143 40.5C8.57143 39.3065 8.1199 38.1619 7.31617 37.318C6.51244 36.4741 5.42236 36 4.28571 36C3.14907 36 2.05898 36.4741 1.25526 37.318C0.45153 38.1619 0 39.3065 0 40.5C0.0084476 48.0683 2.61175 55.3804 7.33363 61.0986C12.0555 66.8168 18.5803 70.5588 25.7143 71.64V81H16.6714C15.6598 81 14.6896 81.422 13.9743 82.173C13.259 82.9241 12.8571 83.9428 12.8571 85.005V85.995C12.8571 87.0572 13.259 88.0759 13.9743 88.827C14.6896 89.578 15.6598 90 16.6714 90H43.3286C44.3402 90 45.3104 89.578 46.0257 88.827C46.741 88.0759 47.1429 87.0572 47.1429 85.995V85.005C47.1429 83.9428 46.741 82.9241 46.0257 82.173C45.3104 81.422 44.3402 81 43.3286 81H34.2857V71.64C41.4197 70.5588 47.9445 66.8168 52.6664 61.0986C57.3883 55.3804 59.9916 48.0683 60 40.5Z" fill="#205072"/>
</svg>
