<svg width="25" height="25" viewBox="0 0 25 25" fill="none" xmlns="http://www.w3.org/2000/svg">
<g clip-path="url(#clip0_1491_2)">
<path d="M9.375 1.5625C9.375 2.42676 10.0732 3.125 10.9375 3.125C16.9775 3.125 21.875 8.02246 21.875 14.0625C21.875 14.9268 22.5732 15.625 23.4375 15.625C24.3018 15.625 25 14.9268 25 14.0625C25 6.29395 18.7061 0 10.9375 0C10.0732 0 9.375 0.698242 9.375 1.5625ZM9.375 6.25C9.375 7.11426 10.0732 7.8125 10.9375 7.8125C14.3896 7.8125 17.1875 10.6104 17.1875 14.0625C17.1875 14.9268 17.8857 15.625 18.75 15.625C19.6143 15.625 20.3125 14.9268 20.3125 14.0625C20.3125 8.88672 16.1133 4.6875 10.9375 4.6875C10.0732 4.6875 9.375 5.38574 9.375 6.25ZM4.6875 7.03125C4.6875 5.7373 3.6377 4.6875 2.34375 4.6875C1.0498 4.6875 0 5.7373 0 7.03125V17.9688C0 21.8506 3.14941 25 7.03125 25C10.9131 25 14.0625 21.8506 14.0625 17.9688C14.0625 14.0869 10.9131 10.9375 7.03125 10.9375H6.25V15.625H7.03125C8.3252 15.625 9.375 16.6748 9.375 17.9688C9.375 19.2627 8.3252 20.3125 7.03125 20.3125C5.7373 20.3125 4.6875 19.2627 4.6875 17.9688V7.03125Z" fill="#205072"/>
</g>
<defs>
<clipPath id="clip0_1491_2">
<rect width="25" height="25" fill="white"/>
</clipPath>
</defs>
</svg>
