<svg width="26" height="26" viewBox="0 0 26 26" fill="none" xmlns="http://www.w3.org/2000/svg">
<g clip-path="url(#clip0_728_749)">
<path d="M8.8384 19.9437C8.8384 20.0419 8.72181 20.1205 8.5748 20.1205C8.40752 20.1353 8.29093 20.0567 8.29093 19.9437C8.29093 19.8455 8.40752 19.7669 8.55453 19.7669C8.7066 19.7522 8.8384 19.8308 8.8384 19.9437ZM7.2619 19.7228C7.22641 19.821 7.3278 19.9339 7.47987 19.9634C7.61167 20.0125 7.76374 19.9634 7.79416 19.8652C7.82457 19.7669 7.72826 19.654 7.57618 19.6098C7.44439 19.5754 7.29738 19.6245 7.2619 19.7228ZM9.50245 19.6393C9.35545 19.6736 9.25407 19.7669 9.26927 19.8799C9.28448 19.9781 9.41628 20.042 9.56835 20.0076C9.71536 19.9732 9.81674 19.8799 9.80153 19.7817C9.78632 19.6884 9.64946 19.6245 9.50245 19.6393ZM12.8379 0.821411C5.80706 0.821411 0.428711 5.99239 0.428711 12.8036C0.428711 18.2495 3.96696 22.9098 9.02089 24.55C9.66973 24.6629 9.89785 24.275 9.89785 23.9558C9.89785 23.6513 9.88264 21.9719 9.88264 20.9406C9.88264 20.9406 6.33425 21.6772 5.58909 19.4772C5.58909 19.4772 5.0112 18.0482 4.17987 17.6799C4.17987 17.6799 3.01904 16.9089 4.26097 16.9236C4.26097 16.9236 5.52319 17.0219 6.21766 18.1906C7.3278 20.0861 9.18817 19.5411 9.91305 19.2169C10.0296 18.4312 10.3591 17.8861 10.7241 17.562C7.89047 17.2576 5.03148 16.8598 5.03148 12.1357C5.03148 10.7853 5.41673 10.1076 6.2278 9.24329C6.096 8.92409 5.66512 7.60802 6.35959 5.90891C7.41904 5.58972 9.85729 7.23481 9.85729 7.23481C10.8711 6.95981 11.961 6.81739 13.0407 6.81739C14.1204 6.81739 15.2103 6.95981 16.2241 7.23481C16.2241 7.23481 18.6624 5.5848 19.7218 5.90891C20.4163 7.61293 19.9854 8.92409 19.8536 9.24329C20.6647 10.1125 21.1615 10.7902 21.1615 12.1357C21.1615 16.8745 18.1757 17.2527 15.3421 17.562C15.8085 17.95 16.2038 18.6866 16.2038 19.8406C16.2038 21.4955 16.1886 23.5433 16.1886 23.946C16.1886 24.2652 16.4218 24.6531 17.0656 24.5402C22.1347 22.9098 25.5716 18.2495 25.5716 12.8036C25.5716 5.99239 19.8688 0.821411 12.8379 0.821411ZM5.35591 17.7585C5.29001 17.8076 5.30521 17.9205 5.39139 18.0138C5.4725 18.0924 5.58909 18.1268 5.65498 18.0629C5.72088 18.0138 5.70568 17.9009 5.6195 17.8076C5.53839 17.729 5.4218 17.6946 5.35591 17.7585ZM4.80844 17.3607C4.77296 17.4245 4.82365 17.5031 4.92503 17.5522C5.00613 17.6013 5.10752 17.5866 5.143 17.5178C5.17849 17.454 5.12779 17.3754 5.02641 17.3263C4.92503 17.2969 4.84392 17.3116 4.80844 17.3607ZM6.45084 19.1089C6.36973 19.1728 6.40015 19.3201 6.51674 19.4134C6.63333 19.5263 6.78033 19.5411 6.84623 19.4625C6.91213 19.3986 6.88171 19.2513 6.78033 19.158C6.66881 19.0451 6.51674 19.0303 6.45084 19.1089ZM5.87296 18.387C5.79185 18.4361 5.79185 18.5638 5.87296 18.6768C5.95406 18.7897 6.09093 18.8388 6.15683 18.7897C6.23793 18.7259 6.23793 18.5982 6.15683 18.4853C6.08586 18.3723 5.95406 18.3232 5.87296 18.387Z" fill="#205072"/>
</g>
<defs>
<clipPath id="clip0_728_749">
<rect width="25.1429" height="25.1429" fill="white" transform="translate(0.428711 0.428589)"/>
</clipPath>
</defs>
</svg>
